HIERARCHY
ROOT mixamorig:Hips
{
	OFFSET -0.000007 99.791939 0.000048
	CHANNELS 6 Xposition Yposition Zposition Xrotation Yrotation Zrotation
	JOINT mixamorig:Spine
	{
		OFFSET -0.000008 9.923462 -1.227335
		CHANNELS 3 Xrotation Yrotation Zrotation
		JOINT mixamorig:Spine1
		{
			OFFSET -0.001162 11.645439 -1.422341
			CHANNELS 3 Xrotation Yrotation Zrotation
			JOINT mixamorig:Spine2
			{
				OFFSET -0.001082 13.360199 -1.626459
				CHANNELS 3 Xrotation Yrotation Zrotation
				JOINT mixamorig:Neck
				{
					OFFSET -0.001294 15.032486 0.792904
					CHANNELS 3 Xrotation Yrotation Zrotation
					JOINT mixamorig:Head
					{
						OFFSET -0.000902 10.321838 3.142429
						CHANNELS 3 Xrotation Yrotation Zrotation
						JOINT mixamorig:HeadTop_End
						{
							OFFSET -0.001464 18.474670 6.636400
							CHANNELS 3 Xrotation Yrotation Zrotation
							End Site
							{
								OFFSET -0.001724 19.630463 0.000000
							}
						}
					}
				}
				JOINT mixamorig:LeftShoulder
				{
					OFFSET 6.105025 9.110947 0.705547
					CHANNELS 3 Xrotation Yrotation Zrotation
					JOINT mixamorig:LeftArm
					{
						OFFSET 12.655060 -0.264816 -2.600928
						CHANNELS 3 Xrotation Yrotation Zrotation
						JOINT mixamorig:LeftForeArm
						{
							OFFSET 27.404680 0.002457 -0.000007
							CHANNELS 3 Xrotation Yrotation Zrotation
							JOINT mixamorig:LeftHand
							{
								OFFSET 27.614456 0.002457 0.000007
								CHANNELS 3 Xrotation Yrotation Zrotation
								JOINT mixamorig:LeftHandThumb1
								{
									OFFSET 3.789009 -2.166824 3.002973
									CHANNELS 3 Xrotation Yrotation Zrotation
									JOINT mixamorig:LeftHandThumb2
									{
										OFFSET 3.675636 -2.121704 2.122010
										CHANNELS 3 Xrotation Yrotation Zrotation
										JOINT mixamorig:LeftHandThumb3
										{
											OFFSET 3.394531 -1.959473 1.959746
											CHANNELS 3 Xrotation Yrotation Zrotation
											JOINT mixamorig:LeftHandThumb4
											{
												OFFSET 2.679504 -1.546753 1.546951
												CHANNELS 3 Xrotation Yrotation Zrotation
												End Site
												{
													OFFSET 2.400604 -1.530380 1.964751
												}
											}
										}
									}
								}
								JOINT mixamorig:LeftHandIndex1
								{
									OFFSET 12.266647 -0.230743 2.822040
									CHANNELS 3 Xrotation Yrotation Zrotation
									JOINT mixamorig:LeftHandIndex2
									{
										OFFSET 3.891968 0.000336 0.000037
										CHANNELS 3 Xrotation Yrotation Zrotation
										JOINT mixamorig:LeftHandIndex3
										{
											OFFSET 3.415161 0.000305 -0.000010
											CHANNELS 3 Xrotation Yrotation Zrotation
											JOINT mixamorig:LeftHandIndex4
											{
												OFFSET 3.077995 0.000275 -0.000009
												CHANNELS 3 Xrotation Yrotation Zrotation
												End Site
												{
													OFFSET 3.077988 0.000259 0.000131
												}
											}
										}
									}
								}
								JOINT mixamorig:LeftHandMiddle1
								{
									OFFSET 12.775536 0.001129 0.000014
									CHANNELS 3 Xrotation Yrotation Zrotation
									JOINT mixamorig:LeftHandMiddle2
									{
										OFFSET 3.613968 0.000320 0.000000
										CHANNELS 3 Xrotation Yrotation Zrotation
										JOINT mixamorig:LeftHandMiddle3
										{
											OFFSET 3.459763 0.000305 -0.000028
											CHANNELS 3 Xrotation Yrotation Zrotation
											JOINT mixamorig:LeftHandMiddle4
											{
												OFFSET 3.680191 0.000320 0.000031
												CHANNELS 3 Xrotation Yrotation Zrotation
												End Site
												{
													OFFSET 3.680191 0.000351 -0.004814
												}
											}
										}
									}
								}
								JOINT mixamorig:LeftHandRing1
								{
									OFFSET 12.147018 0.011063 -2.216636
									CHANNELS 3 Xrotation Yrotation Zrotation
									JOINT mixamorig:LeftHandRing2
									{
										OFFSET 3.601181 0.000320 0.000033
										CHANNELS 3 Xrotation Yrotation Zrotation
										JOINT mixamorig:LeftHandRing3
										{
											OFFSET 3.307320 0.000305 -0.000023
											CHANNELS 3 Xrotation Yrotation Zrotation
											JOINT mixamorig:LeftHandRing4
											{
												OFFSET 3.660118 0.000320 0.000000
												CHANNELS 3 Xrotation Yrotation Zrotation
												End Site
												{
													OFFSET 3.660103 0.000229 0.005616
												}
											}
										}
									}
								}
								JOINT mixamorig:LeftHandPinky1
								{
									OFFSET 10.908218 -0.225174 -4.725837
									CHANNELS 3 Xrotation Yrotation Zrotation
									JOINT mixamorig:LeftHandPinky2
									{
										OFFSET 4.136658 0.000351 0.001166
										CHANNELS 3 Xrotation Yrotation Zrotation
										JOINT mixamorig:LeftHandPinky3
										{
											OFFSET 2.594826 0.000244 -0.001180
											CHANNELS 3 Xrotation Yrotation Zrotation
											JOINT mixamorig:LeftHandPinky4
											{
												OFFSET 2.923874 0.000244 0.000018
												CHANNELS 3 Xrotation Yrotation Zrotation
												End Site
												{
													OFFSET 2.923851 0.000275 -0.003346
												}
											}
										}
									}
								}
							}
						}
					}
				}
				JOINT mixamorig:RightShoulder
				{
					OFFSET -6.106495 9.109970 0.705565
					CHANNELS 3 Xrotation Yrotation Zrotation
					JOINT mixamorig:RightArm
					{
						OFFSET -12.655020 -0.267136 -2.600890
						CHANNELS 3 Xrotation Yrotation Zrotation
						JOINT mixamorig:RightForeArm
						{
							OFFSET -27.404675 -0.002365 0.000019
							CHANNELS 3 Xrotation Yrotation Zrotation
							JOINT mixamorig:RightHand
							{
								OFFSET -27.614464 -0.002396 0.000031
								CHANNELS 3 Xrotation Yrotation Zrotation
								JOINT mixamorig:RightHandThumb1
								{
									OFFSET -3.788620 -2.167480 3.002977
									CHANNELS 3 Xrotation Yrotation Zrotation
									JOINT mixamorig:RightHandThumb2
									{
										OFFSET -3.675247 -2.122314 2.122009
										CHANNELS 3 Xrotation Yrotation Zrotation
										JOINT mixamorig:RightHandThumb3
										{
											OFFSET -3.394188 -1.960129 1.959755
											CHANNELS 3 Xrotation Yrotation Zrotation
											JOINT mixamorig:RightHandThumb4
											{
												OFFSET -2.679230 -1.547195 1.546953
												CHANNELS 3 Xrotation Yrotation Zrotation
												End Site
												{
													OFFSET -2.398781 -1.531693 1.965949
												}
											}
										}
									}
								}
								JOINT mixamorig:RightHandIndex1
								{
									OFFSET -12.266594 -0.232895 2.822051
									CHANNELS 3 Xrotation Yrotation Zrotation
									JOINT mixamorig:RightHandIndex2
									{
										OFFSET -3.891968 -0.000336 0.000040
										CHANNELS 3 Xrotation Yrotation Zrotation
										JOINT mixamorig:RightHandIndex3
										{
											OFFSET -3.415161 -0.000305 -0.000006
											CHANNELS 3 Xrotation Yrotation Zrotation
											JOINT mixamorig:RightHandIndex4
											{
												OFFSET -3.077988 -0.000275 0.000006
												CHANNELS 3 Xrotation Yrotation Zrotation
												End Site
												{
													OFFSET -3.077980 0.000229 -0.008454
												}
											}
										}
									}
								}
								JOINT mixamorig:RightHandMiddle1
								{
									OFFSET -12.775528 -0.001114 0.000025
									CHANNELS 3 Xrotation Yrotation Zrotation
									JOINT mixamorig:RightHandMiddle2
									{
										OFFSET -3.613968 -0.000320 0.000005
										CHANNELS 3 Xrotation Yrotation Zrotation
										JOINT mixamorig:RightHandMiddle3
										{
											OFFSET -3.459763 -0.000305 -0.000025
											CHANNELS 3 Xrotation Yrotation Zrotation
											JOINT mixamorig:RightHandMiddle4
											{
												OFFSET -3.680191 -0.000320 0.000034
												CHANNELS 3 Xrotation Yrotation Zrotation
												End Site
												{
													OFFSET -3.680168 -0.000031 0.012581
												}
											}
										}
									}
								}
								JOINT mixamorig:RightHandRing1
								{
									OFFSET -12.147003 0.008942 -2.216624
									CHANNELS 3 Xrotation Yrotation Zrotation
									JOINT mixamorig:RightHandRing2
									{
										OFFSET -3.601196 -0.000320 0.000037
										CHANNELS 3 Xrotation Yrotation Zrotation
										JOINT mixamorig:RightHandRing3
										{
											OFFSET -3.307312 -0.000290 -0.000019
											CHANNELS 3 Xrotation Yrotation Zrotation
											JOINT mixamorig:RightHandRing4
											{
												OFFSET -3.660118 -0.000320 0.000002
												CHANNELS 3 Xrotation Yrotation Zrotation
												End Site
												{
													OFFSET -3.660110 0.000107 0.002180
												}
											}
										}
									}
								}
								JOINT mixamorig:RightHandPinky1
								{
									OFFSET -10.908173 -0.227081 -4.725826
									CHANNELS 3 Xrotation Yrotation Zrotation
									JOINT mixamorig:RightHandPinky2
									{
										OFFSET -4.136642 -0.000366 0.000029
										CHANNELS 3 Xrotation Yrotation Zrotation
										JOINT mixamorig:RightHandPinky3
										{
											OFFSET -2.594841 -0.000229 -0.000036
											CHANNELS 3 Xrotation Yrotation Zrotation
											JOINT mixamorig:RightHandPinky4
											{
												OFFSET -2.923874 -0.000259 0.000021
												CHANNELS 3 Xrotation Yrotation Zrotation
												End Site
												{
													OFFSET -2.923820 0.000336 -0.012876
												}
											}
										}
									}
								}
							}
						}
					}
				}
			}
		}
	}
	JOINT mixamorig:LeftUpLeg
	{
		OFFSET 9.124458 -6.656387 -0.055378
		CHANNELS 3 Xrotation Yrotation Zrotation
		JOINT mixamorig:LeftLeg
		{
			OFFSET 0.244681 -40.595421 -0.515619
			CHANNELS 3 Xrotation Yrotation Zrotation
			JOINT mixamorig:LeftFoot
			{
				OFFSET -0.244669 -42.047928 -2.059156
				CHANNELS 3 Xrotation Yrotation Zrotation
				JOINT mixamorig:LeftToeBase
				{
					OFFSET 0.373535 -7.208548 13.966561
					CHANNELS 3 Xrotation Yrotation Zrotation
					JOINT mixamorig:LeftToe_End
					{
						OFFSET -0.142059 -0.175224 9.997455
						CHANNELS 3 Xrotation Yrotation Zrotation
						End Site
						{
							OFFSET -0.142060 -0.175223 9.997459
						}
					}
				}
			}
		}
	}
	JOINT mixamorig:RightUpLeg
	{
		OFFSET -9.124448 -6.656403 -0.055378
		CHANNELS 3 Xrotation Yrotation Zrotation
		JOINT mixamorig:RightLeg
		{
			OFFSET -0.244680 -40.595459 -0.514290
			CHANNELS 3 Xrotation Yrotation Zrotation
			JOINT mixamorig:RightFoot
			{
				OFFSET 0.244670 -42.047859 -2.060535
				CHANNELS 3 Xrotation Yrotation Zrotation
				JOINT mixamorig:RightToeBase
				{
					OFFSET -0.373535 -7.208539 13.966558
					CHANNELS 3 Xrotation Yrotation Zrotation
					JOINT mixamorig:RightToe_End
					{
						OFFSET 0.141798 -0.175009 9.997463
						CHANNELS 3 Xrotation Yrotation Zrotation
						End Site
						{
							OFFSET 0.141798 -0.175009 9.997467
						}
					}
				}
			}
		}
	}
}
MOTION
Frames: 6
Frame Time: 0.033333
4.578506 97.674706 -0.532897 -3.123786 -12.405437 -2.256154 7.324967 2.035752 -0.434469 -0.262376 0.356599 -1.259216 -0.258283 0.339848 -1.264933 5.660728 -0.649632 2.689061 17.952445 0.695574 -0.820562 -0.000002 0.000000 -0.000000 0.467934 -0.077968 -6.714170 33.321245 -45.567631 -45.921903 0.002375 -24.917363 0.000529 10.626060 7.855497 3.451000 -1.540384 3.690021 6.142317 5.190227 23.965047 1.873399 -0.579578 1.574938 2.538727 0.000002 0.000003 0.000008 0.117551 1.270138 -10.581703 0.286661 1.969933 -16.565422 0.015073 0.457045 -3.790049 -0.000001 0.000001 0.000001 0.103631 1.193219 -9.938598 0.067051 0.961098 -7.990587 0.041980 0.761567 -6.323902 0.000002 -0.000000 -0.000000 0.036578 0.710904 -5.897549 0.286601 1.969762 -16.565727 0.049467 0.826668 -6.866932 0.000000 0.000000 0.000001 1.392496 5.837510 -15.721002 0.278925 -2.127265 -17.056140 0.019030 0.539424 -4.255627 -0.000002 -0.000000 0.000001 0.855325 12.433921 6.807023 29.343008 19.887832 31.615446 -0.007735 57.244775 0.004230 23.478102 -6.837944 4.288617 -1.849002 -3.581858 -6.586065 13.385033 -24.540060 -0.005787 7.018100 -15.801658 -3.591665 0.000001 0.000006 -0.000001 0.010383 -0.380027 3.115823 0.024727 -0.585836 4.816981 0.002124 -0.171621 1.408386 -0.000001 -0.000000 -0.000000 0.010355 -0.379528 3.115826 0.024723 -0.586322 4.816980 0.002122 -0.171622 1.408389 0.000000 -0.000001 -0.000001 0.010385 -0.380127 3.115826 0.119534 -1.285273 10.616286 0.002126 -0.171615 1.408394 0.000002 0.000001 0.000001 0.010374 -0.379928 3.115828 0.065879 -0.955853 7.878615 0.002139 -0.172808 1.408395 -0.000001 0.000000 -0.000001 -6.108055 0.906384 7.184323 22.192570 9.191794 0.742416 -8.637880 22.656248 -8.769417 -0.000041 -0.000002 -0.000004 -0.000000 0.000002 -0.000000 -11.583178 -11.162462 -8.077558 21.963810 -7.453029 0.019650 -5.453145 7.628269 7.245194 -2.772496 -0.000007 0.000020 -0.000000 -0.000000 0.000000 
4.175028 97.308952 -0.635217 -3.535486 -11.585259 -2.294101 8.242548 1.987585 -0.164127 -0.406474 0.352025 -1.216535 -0.401517 0.334124 -1.223501 5.630136 -0.640303 2.787562 17.671870 0.881563 -0.893278 0.000000 0.000000 -0.000000 0.424517 0.230709 -5.257233 29.380875 -48.345445 -47.723748 0.002541 -26.471976 0.000608 12.911881 8.559222 4.244417 -1.540380 3.690002 6.142312 5.190225 23.965045 1.873396 -0.579581 1.574944 2.538729 0.000004 0.000001 0.000004 0.111893 1.239416 -10.322683 0.268601 1.908181 -16.031629 0.013547 0.433476 -3.594257 -0.000000 -0.000000 0.000001 0.098049 1.160871 -9.666512 0.060675 0.914563 -7.601436 0.038899 0.733008 -6.085704 -0.000000 -0.000000 0.000001 0.034375 0.689231 -5.716989 0.268530 1.908012 -16.031952 0.045971 0.797036 -6.619606 0.000000 -0.000000 -0.000000 1.343915 5.791467 -15.241446 0.260571 -2.188949 -16.523670 0.016888 0.509670 -4.008340 0.000000 0.000001 -0.000004 0.904006 9.149685 4.190351 20.611235 14.444684 33.280168 -0.010624 64.877918 0.006776 25.825401 -8.665261 -6.980466 -3.838813 -3.468930 -7.743597 13.000583 -23.868683 -0.025263 6.671556 -15.124848 -3.531851 0.000002 0.000001 -0.000001 0.008461 -0.342841 2.810274 0.014532 -0.449177 3.692346 0.001226 -0.130036 1.067122 0.000001 -0.000002 0.000001 0.008436 -0.342344 2.810274 0.014532 -0.449659 3.692346 0.001228 -0.130037 1.067120 -0.000000 0.000000 -0.000002 0.008464 -0.342940 2.810273 0.090090 -1.116839 9.212609 0.001217 -0.130033 1.067123 -0.000000 -0.000001 0.000000 0.008452 -0.342743 2.810271 0.049279 -0.827123 6.813487 0.001229 -0.131250 1.067133 -0.000000 -0.000000 0.000001 -6.787096 0.482943 8.485681 24.429908 8.379125 -1.103634 -9.879151 22.189830 -8.186963 -0.000057 -0.000004 0.000001 0.000000 -0.000000 -0.000000 -14.538753 -13.020702 -9.550489 27.893150 -6.586670 0.464212 -5.671008 8.840708 6.685739 -6.973589 -0.000053 0.000060 -0.000000 -0.000000 0.000000 
3.685968 97.021187 -0.777791 -4.144197 -10.934110 -2.163388 9.445384 1.808685 -0.369310 -0.441391 0.338229 -1.257656 -0.436308 0.316577 -1.265333 5.541092 -0.599355 3.020254 17.719155 1.528894 -1.584358 -0.000002 -0.000000 -0.000000 0.384090 0.613004 -4.120515 28.789060 -50.077458 -47.735349 0.002614 -27.152191 0.000639 13.661007 8.233432 5.767022 -1.540385 3.690011 6.142316 5.190224 23.965042 1.873398 -0.579582 1.574940 2.538726 0.000003 0.000002 0.000003 0.104712 1.199402 -9.985713 0.245978 1.827586 -15.337275 0.011696 0.402806 -3.339532 -0.000002 0.000000 -0.000000 0.091010 1.118751 -9.312572 0.052862 0.853951 -7.094704 0.035035 0.695807 -5.775775 -0.000001 0.000000 -0.000000 0.031611 0.661023 -5.482099 0.245904 1.827396 -15.337596 0.041597 0.758460 -6.297863 0.000002 0.000000 -0.000001 1.281308 5.730948 -14.617662 0.237527 -2.269407 -15.830963 0.014289 0.470943 -3.686630 0.000000 -0.000000 -0.000003 0.809311 6.138898 1.319234 13.056543 10.996259 33.678942 -0.014934 71.545712 0.010750 27.803257 -10.376451 -15.247795 -5.963979 -3.262699 -8.963654 12.606828 -23.178286 -0.044237 6.314914 -14.429234 -3.470173 0.000001 0.000003 -0.000001 0.007157 -0.315513 2.585584 0.008767 -0.348549 2.865301 0.000723 -0.099460 0.816202 0.000001 0.000000 -0.000001 0.007135 -0.315010 2.585585 0.008766 -0.349035 2.865302 0.000722 -0.099459 0.816204 -0.000000 0.000001 -0.000000 0.007158 -0.315612 2.585585 0.071077 -0.992534 8.180445 0.000711 -0.099468 0.816211 0.000001 0.000002 -0.000001 0.007149 -0.315410 2.585585 0.038613 -0.732288 6.030232 0.000722 -0.100663 0.816209 0.000000 0.000005 -0.000002 -6.830011 0.466545 9.506959 25.673267 7.766612 -2.590754 -10.572782 21.337567 -7.783850 -0.000190 0.000006 0.000000 -0.000000 0.000001 0.000000 -15.700901 -12.786843 -10.696062 31.137186 -3.063830 1.287260 -5.991005 8.720384 5.818252 -8.612079 -0.000062 0.000070 0.000000 -0.000001 -0.000000 
3.226048 96.962425 -0.895769 -5.233213 -10.869216 -1.552797 10.404799 1.476318 -0.911584 -0.403347 0.306084 -1.369944 -0.398868 0.279707 -1.377294 5.256686 -0.462101 2.995187 17.358716 2.186659 -1.635766 0.000001 0.000000 -0.000000 0.346505 0.832001 -3.158564 29.881487 -50.564918 -47.170987 0.002559 -26.738251 0.000598 13.201665 6.791692 7.439773 -1.540395 3.690009 6.142321 5.190226 23.965040 1.873395 -0.579577 1.574936 2.538725 0.000004 0.000002 0.000004 0.098896 1.165919 -9.703989 0.227796 1.760005 -14.756699 0.010251 0.377130 -3.126560 0.000001 0.000000 -0.000001 0.085326 1.083513 -9.016645 0.046725 0.803025 -6.669522 0.031945 0.664699 -5.516662 -0.000001 0.000000 -0.000000 0.029385 0.637430 -5.285705 0.227726 1.759794 -14.756998 0.038135 0.726197 -6.028857 -0.000001 0.000000 -0.000000 1.229477 5.679847 -14.096261 0.219041 -2.336930 -15.251667 0.012272 0.438539 -3.417673 0.000001 -0.000000 0.000000 0.637056 3.983051 -1.860264 7.751107 9.384799 34.029174 -0.021581 77.014761 0.017153 29.477621 -11.350706 -18.017978 -8.183049 -2.952903 -10.216053 12.202241 -22.466024 -0.062706 5.946644 -13.712009 -3.406351 0.000003 -0.000003 0.000003 0.006727 -0.305727 2.505278 0.007050 -0.312562 2.569740 0.000571 -0.088521 0.726515 -0.000001 0.000000 0.000000 0.006705 -0.305225 2.505278 0.007050 -0.313046 2.569741 0.000569 -0.088522 0.726515 0.000000 0.000004 -0.000002 0.006729 -0.305829 2.505278 0.064824 -0.948030 7.811586 0.000562 -0.088546 0.726514 -0.000000 0.000001 0.000001 0.006720 -0.305627 2.505278 0.035113 -0.698363 5.750337 0.000573 -0.089725 0.726500 0.000000 0.000002 -0.000000 -5.335696 1.107208 9.468534 24.937338 8.010255 -3.287874 -10.254148 20.208991 -7.721189 -0.000442 0.000000 0.000001 -0.000000 0.000001 0.000000 -15.231404 -10.520855 -12.104403 32.621345 -0.567803 2.651341 -6.635774 7.062048 6.721444 -9.244862 -0.000062 0.000068 -0.000000 0.000002 0.000000 
2.728137 97.005829 -0.925584 -5.500271 -10.494335 -1.043390 10.532305 0.991040 -1.484792 -0.349020 0.246152 -1.509438 -0.345735 0.216685 -1.515204 5.584305 -0.448865 3.099338 16.663575 2.274935 -1.261830 -0.000000 0.000000 -0.000000 0.321586 0.680678 -2.238243 29.975614 -49.599830 -47.965652 0.002465 -25.736561 0.000579 12.393226 5.039597 8.267660 -1.540395 3.689997 6.142308 5.190226 23.965042 1.873397 -0.579578 1.574937 2.538725 0.000004 -0.000001 0.000003 0.097419 1.157216 -9.630878 0.223191 1.742417 -14.605873 0.009889 0.370462 -3.071287 -0.000000 0.000000 0.000001 0.083885 1.074344 -8.939854 0.045153 0.789661 -6.558057 0.031186 0.656614 -5.449437 0.000001 -0.000000 0.000000 0.028818 0.631297 -5.234731 0.223135 1.742203 -14.606168 0.037247 0.717804 -5.959046 0.000000 -0.000000 0.000000 1.216109 5.666490 -13.960940 0.214325 -2.354493 -15.101185 0.011778 0.430142 -3.347878 -0.000001 0.000000 -0.000001 0.514495 3.052849 -4.949078 5.205412 8.354512 35.297731 -0.033456 81.561393 0.028826 30.160398 -11.657552 -14.322195 -10.390177 -2.548868 -11.435944 11.787927 -21.733602 -0.080548 5.567600 -12.974878 -3.340495 -0.000000 -0.000001 -0.000001 0.007174 -0.315752 2.587511 0.008806 -0.349425 2.872429 0.000721 -0.099730 0.818369 -0.000001 -0.000002 0.000001 0.007151 -0.315255 2.587511 0.008804 -0.349909 2.872429 0.000720 -0.099732 0.818369 0.000000 -0.000002 0.000001 0.007175 -0.315853 2.587511 0.071232 -0.993613 8.189346 0.000706 -0.099726 0.818347 -0.000000 -0.000001 0.000000 0.007166 -0.315654 2.587511 0.038691 -0.733110 6.036995 0.000727 -0.100936 0.818350 -0.000000 0.000002 -0.000000 -4.505196 1.252335 9.460902 23.844701 8.386852 -3.660262 -9.630244 19.310929 -7.832139 -0.119034 0.000007 0.000001 0.000000 0.000000 0.000000 -14.141452 -7.952888 -12.202834 32.234279 0.714728 3.397109 -7.375043 5.065702 6.814691 -9.375147 -0.000071 0.000071 0.000000 0.000001 -0.000000 
2.014162 97.127174 -0.788366 -4.805407 -9.561244 -0.941068 9.649823 0.387411 -1.828826 -0.315263 0.155654 -1.616503 -0.313547 0.126581 -1.619795 6.030943 -0.459462 3.257100 16.243903 2.311371 -0.928991 -0.000000 0.000000 0.000000 0.322472 0.192942 -1.405199 27.896957 -47.080316 -50.895093 0.002403 -25.220255 0.000548 12.041755 4.290404 7.655962 -1.540390 3.690017 6.142325 5.190224 23.965042 1.873401 -0.579576 1.574940 2.538730 0.000006 -0.000000 0.000004 0.101135 1.178913 -9.813257 0.234754 1.786222 -14.981807 0.010797 0.387070 -3.209174 -0.000000 -0.000000 0.000000 0.087517 1.097182 -9.131434 0.049058 0.822870 -6.835172 0.033126 0.676768 -5.617159 0.000000 0.000000 -0.000000 0.030239 0.646578 -5.361873 0.234709 1.786037 -14.982093 0.039460 0.738705 -6.133212 0.000000 -0.000000 0.000001 1.249535 5.699722 -14.298495 0.226125 -2.310728 -15.476278 0.013038 0.451115 -3.522006 -0.000001 0.000000 0.000000 0.531227 3.131707 -7.143166 4.608696 6.718505 37.208039 -0.064269 85.569402 0.059496 29.317983 -12.296634 -6.392851 -12.438103 -2.088845 -12.541239 11.366917 -20.986207 -0.097584 5.180475 -12.223166 -3.273003 -0.000003 -0.000004 -0.000001 0.008201 -0.337683 2.767942 0.013335 -0.430210 3.536515 0.001121 -0.124271 1.019850 -0.000001 -0.000001 -0.000000 0.008177 -0.337182 2.767941 0.013333 -0.430693 3.536515 0.001121 -0.124274 1.019851 -0.000000 -0.000000 -0.000001 0.008203 -0.337785 2.767942 0.086340 -1.093451 9.018131 0.001112 -0.124283 1.019857 -0.000000 0.000000 -0.000001 0.008193 -0.337584 2.767942 0.047172 -0.809285 6.665919 0.001126 -0.125466 1.019854 -0.000000 -0.000001 0.000001 -4.739721 0.690008 9.462740 22.743401 8.764229 -2.788997 -8.653116 19.165292 -8.714986 -0.269704 0.000008 0.000001 0.000000 -0.000001 0.000000 -12.617637 -6.308558 -10.461374 29.912564 1.730090 2.514395 -8.609792 3.490492 6.277104 -8.317545 -0.000070 0.000064 -0.000000 0.000001 0.000000 
